<svg width="32" height="32" viewBox="0 0 32 32" fill="none" xmlns="http://www.w3.org/2000/svg">
<rect width="32" height="32" rx="8" fill="url(#gradient)"/>
<path d="M20.5 8.5c-1.2 0-2.3.5-3.1 1.3-.8.8-1.3 1.9-1.3 3.1v7.6c0 1.2-.5 2.3-1.3 3.1-.8.8-1.9 1.3-3.1 1.3s-2.3-.5-3.1-1.3c-.8-.8-1.3-1.9-1.3-3.1s.5-2.3 1.3-3.1c.8-.8 1.9-1.3 3.1-1.3v-3c-2.4 0-4.6 1-6.2 2.6-1.6 1.6-2.6 3.8-2.6 6.2s1 4.6 2.6 6.2c1.6 1.6 3.8 2.6 6.2 2.6s4.6-1 6.2-2.6c1.6-1.6 2.6-3.8 2.6-6.2v-7.6c0-1.2.5-2.3 1.3-3.1.8-.8 1.9-1.3 3.1-1.3v-3z" fill="white"/>
<defs>
<linearGradient id="gradient" x1="0" y1="0" x2="32" y2="32" gradientUnits="userSpaceOnUse">
<stop stop-color="#FF0050"/>
<stop offset="1" stop-color="#00F2EA"/>
</linearGradient>
</defs>
</svg>